<?xml version="1.0" encoding="utf-8"?>
<svg version="1.1" id="Layer_1" x="0px" y="0px" width="120px" height="90px" viewBox="0 0 120 90" style="enable-background:new 0 0 120 90;" xmlns="http://www.w3.org/2000/svg">
  <defs/>
  <style type="text/css">
	.st0{fill:#264DE4;}
	.st1{fill:#2965F1;}
	.st2{fill:#EBEBEB;}
	.st3{fill:#FFFFFF;}
</style>
  <path d="M 101.298 9.622 L 82.724 0.679 C 80.576 -0.357 78.006 0.081 76.317 1.769 L 15.517 57.2 C 13.984 58.593 13.869 60.968 15.259 62.504 C 15.34 62.592 15.421 62.674 15.507 62.752 L 20.471 67.261 C 21.811 68.48 23.828 68.57 25.268 67.475 L 98.501 11.941 C 100.792 10.205 104.1 11.597 104.457 14.444 C 104.477 14.599 104.487 14.756 104.487 14.911 L 104.487 14.695 C 104.487 12.531 103.25 10.559 101.298 9.622 Z" style="fill: rgb(0, 101, 169);"/>
  <path d="M 101.298 80.295 L 82.724 89.241 C 80.576 90.274 78.009 89.836 76.317 88.152 L 15.517 32.717 C 13.984 31.324 13.869 28.949 15.259 27.413 C 15.34 27.325 15.421 27.243 15.507 27.165 L 20.471 22.656 C 21.811 21.431 23.838 21.34 25.278 22.442 L 98.501 77.976 C 100.792 79.712 104.1 78.32 104.457 75.47 C 104.477 75.315 104.487 75.161 104.487 75.006 L 104.487 75.237 C 104.48 77.396 103.244 79.358 101.298 80.295 Z" style="fill: rgb(0, 122, 204);"/>
  <path d="M 82.724 89.241 C 80.576 90.274 78.009 89.836 76.317 88.152 C 78.128 89.935 81.191 89.096 81.833 86.634 C 81.904 86.367 81.939 86.094 81.939 85.816 L 81.939 4.101 C 81.942 1.562 79.195 -0.028 76.994 1.24 C 76.743 1.385 76.51 1.562 76.305 1.769 C 77.993 0.081 80.563 -0.357 82.712 0.676 L 101.282 9.605 C 103.241 10.539 104.484 12.511 104.487 14.678 L 104.487 75.237 C 104.49 77.402 103.247 79.378 101.295 80.315 L 82.724 89.241 Z" style="fill: rgb(31, 156, 240);"/>
</svg>