<?xml version="1.0" encoding="utf-8"?>
<svg version="1.1" id="Layer_1" x="0px" y="0px" width="120px" height="90px" viewBox="0 0 120 90" style="enable-background:new 0 0 120 90;" xmlns="http://www.w3.org/2000/svg">
  <defs/>
  <style type="text/css">
	.st0{fill:#264DE4;}
	.st1{fill:#2965F1;}
	.st2{fill:#EBEBEB;}
	.st3{fill:#FFFFFF;}
</style>
  <rect width="89.747" height="89.747" rx="256.5" fill="#3178c6" x="15.633" y="0.148" style=""/>
  <path fill="#ffffff" d="M 56.475 49.93 L 67.692 49.93 L 67.692 42.744 L 36.316 42.744 L 36.316 49.93 L 47.535 49.93 L 47.535 82.007 L 56.475 82.007 L 56.475 49.93 Z M 71.198 80.255 C 72.619 80.992 74.354 81.535 76.282 81.903 C 78.209 82.271 80.314 82.446 82.417 82.446 C 84.52 82.446 86.448 82.252 88.376 81.85 C 90.305 81.447 91.882 80.78 93.284 79.922 C 94.704 78.992 95.914 77.818 96.615 76.241 C 97.317 74.663 97.86 72.909 97.86 70.631 C 97.86 69.037 97.615 67.651 97.141 66.425 C 96.668 65.198 95.984 64.146 95.037 63.269 C 94.144 62.34 93.109 61.517 91.882 60.815 C 90.655 60.114 89.253 59.378 87.675 58.712 C 86.518 58.238 85.572 57.783 84.52 57.327 C 83.609 56.872 82.82 56.416 82.242 55.96 C 81.594 55.486 81.102 54.996 80.752 54.488 C 80.402 53.962 80.226 53.384 80.226 52.734 C 80.226 52.138 80.381 51.595 80.699 51.105 C 81.017 50.613 81.453 50.21 82.013 49.86 C 82.575 49.509 83.276 49.247 84.117 49.053 C 84.941 48.861 85.853 48.773 86.921 48.773 C 87.658 48.773 88.43 48.827 89.2 48.938 C 90.007 49.049 90.83 49.218 91.654 49.447 C 92.479 49.674 93.284 49.955 94.108 50.306 C 94.879 50.655 95.598 51.059 96.212 51.515 L 96.212 43.277 C 94.879 42.768 93.407 42.382 91.83 42.137 C 90.252 41.891 88.499 41.769 86.396 41.769 C 84.292 41.769 82.364 41.997 80.437 42.435 C 78.507 42.873 76.931 43.574 75.528 44.539 C 74.109 45.485 73.074 46.641 72.198 48.22 C 71.373 49.692 70.97 51.375 70.97 53.477 C 70.97 56.107 71.725 58.386 73.248 60.139 C 74.757 62.067 77.105 63.47 80.085 64.871 C 81.296 65.363 82.364 65.853 83.415 66.327 C 84.468 66.8 85.344 67.29 86.045 67.799 C 86.8 68.307 87.394 68.869 87.798 69.464 C 88.237 70.061 88.465 70.761 88.465 71.568 C 88.465 72.128 88.328 72.654 88.061 73.144 C 87.794 73.636 87.378 74.056 86.816 74.407 C 86.256 74.758 85.572 75.038 84.713 75.248 C 83.889 75.441 82.96 75.547 81.733 75.547 C 79.805 75.547 77.878 75.214 76.123 74.547 C 74.195 73.881 72.443 72.883 71.198 71.841 L 71.198 80.255 Z" style=""/>
</svg>