<?xml version="1.0" encoding="utf-8"?>
<svg version="1.1" id="Layer_1" x="0px" y="0px" width="120px" height="90px" viewBox="0 0 120 90" style="enable-background:new 0 0 120 90;" xmlns="http://www.w3.org/2000/svg">
  <defs/>
  <style type="text/css">
	.st0{fill:#264DE4;}
	.st1{fill:#2965F1;}
	.st2{fill:#EBEBEB;}
	.st3{fill:#FFFFFF;}
</style>
  <path d="M 112.378 47.636 L 88.572 87.787 C 87.67 89.214 86.071 90.046 84.385 89.97 L 36.755 89.97 C 35.065 90.035 33.466 89.192 32.567 87.761 L 8.755 47.673 C 7.889 46.201 7.889 44.376 8.755 42.907 L 32.56 2.589 C 33.425 1.076 35.013 0.116 36.755 0.056 L 84.37 0.056 C 86.112 0.119 87.696 1.079 88.557 2.596 L 112.362 43.006 C 113.22 44.429 113.22 46.216 112.362 47.643 L 112.378 47.636 Z M 92.664 63.371 L 92.664 27.352 L 60.557 9.295 L 28.487 27.352 L 28.487 63.371 L 60.557 81.425 L 92.664 63.371 Z" style="fill: rgb(75, 50, 195);"/>
  <polygon points="82.293 56.957 60.763 69.077 39.25 56.957 39.25 32.717 60.763 20.593 82.293 32.717 82.293 56.957" style="fill: rgb(128, 128, 242);"/>
</svg>