<?xml version="1.0" encoding="utf-8"?>
<svg version="1.1" id="Layer_1" x="0px" y="0px" width="120px" height="90px" viewBox="0 0 120 90" style="enable-background:new 0 0 120 90;" xmlns="http://www.w3.org/2000/svg">
  <defs/>
  <style type="text/css">
	.st0{fill:#264DE4;}
	.st1{fill:#2965F1;}
	.st2{fill:#EBEBEB;}
	.st3{fill:#FFFFFF;}
</style>
  <path d="M -0.01 24.389 L 119.894 24.389 L 119.894 64.364 L 59.941 64.364 L 59.941 71.026 L 33.298 71.026 L 33.298 64.359 L -0.01 64.359 L -0.01 24.389 Z M 6.652 57.7 L 19.976 57.7 L 19.976 37.711 L 26.633 37.711 L 26.633 57.696 L 33.298 57.696 L 33.298 31.051 L 6.652 31.051 L 6.652 57.7 Z M 39.96 31.051 L 39.96 64.364 L 53.283 64.364 L 53.283 57.7 L 66.605 57.7 L 66.605 31.051 L 39.96 31.051 Z M 53.283 37.715 L 59.941 37.715 L 59.941 51.042 L 53.279 51.042 L 53.283 37.715 Z M 73.268 31.051 L 73.268 57.7 L 86.59 57.7 L 86.59 37.711 L 93.254 37.711 L 93.254 57.696 L 99.916 57.696 L 99.916 37.711 L 106.58 37.711 L 106.58 57.696 L 113.243 57.696 L 113.243 31.051 L 73.268 31.051 Z" style="fill: rgb(203, 56, 55);"/>
</svg>