<?xml version="1.0" encoding="utf-8"?>
<svg version="1.1" id="Layer_1" x="0px" y="0px" width="120px" height="90px" viewBox="0 0 120 90" style="enable-background:new 0 0 120 90;" xmlns="http://www.w3.org/2000/svg">
  <defs/>
  <style type="text/css">
	.st0{fill:#264DE4;}
	.st1{fill:#2965F1;}
	.st2{fill:#EBEBEB;}
	.st3{fill:#FFFFFF;}
</style>
  <path d="M 30.62 32.856 C 34.592 16.983 44.511 9.044 60.384 9.044 C 84.196 9.044 87.172 26.903 99.077 29.879 C 107.016 31.864 113.959 28.888 119.913 20.95 C 115.946 36.823 106.025 44.761 90.148 44.761 C 66.336 44.761 63.36 26.903 51.454 23.926 C 43.52 21.941 36.572 24.917 30.62 32.856 Z M 0.855 68.573 C 4.827 52.7 14.747 44.761 30.62 44.761 C 54.432 44.761 57.408 62.621 69.314 65.597 C 77.252 67.582 84.196 64.606 90.148 56.667 C 86.181 72.54 76.261 80.479 60.384 80.479 C 36.572 80.479 33.596 62.621 21.691 59.643 C 13.756 57.658 6.809 60.634 0.855 68.573 Z" style="fill: rgb(68, 168, 179);"/>
</svg>