<?xml version="1.0" encoding="utf-8"?>
<svg version="1.1" id="Layer_1" x="0px" y="0px" width="120px" height="90px" viewBox="0 0 120 90" style="enable-background:new 0 0 120 90;" xmlns="http://www.w3.org/2000/svg">
  <defs/>
  <style type="text/css">
	.st0{fill:#264DE4;}
	.st1{fill:#2965F1;}
	.st2{fill:#EBEBEB;}
	.st3{fill:#FFFFFF;}
</style>
  <path d="M 74.318 62.275 C 77.467 68.665 83.997 72.681 91.117 72.615 C 98.173 72.615 102.68 69.087 102.68 64.215 C 102.68 58.378 98.048 56.309 90.286 52.909 L 86.026 51.083 C 73.739 45.849 65.574 39.289 65.574 25.426 C 65.574 12.651 75.308 2.933 90.515 2.933 C 100.607 2.202 110.156 7.581 114.755 16.593 L 101.492 25.107 C 99.716 20.639 95.357 17.732 90.545 17.806 C 86.21 17.375 82.438 20.752 82.393 25.107 C 82.393 30.219 85.558 32.283 92.843 35.448 L 97.103 37.269 C 111.575 43.474 119.739 49.799 119.739 64.022 C 119.739 79.352 107.697 87.752 91.519 87.752 C 78.646 88.574 66.495 81.752 60.488 70.336 L 74.318 62.275 Z M 14.163 63.767 C 16.841 68.515 19.275 72.526 25.112 72.526 C 30.705 72.526 34.238 70.336 34.238 61.827 L 34.238 3.93 L 51.266 3.93 L 51.266 62.065 C 51.266 79.696 40.926 87.724 25.838 87.724 C 14.931 88.315 4.785 82.135 0.301 72.167 L 14.163 63.767 Z" style="fill: rgb(251, 192, 45);"/>
</svg>