<?xml version="1.0" encoding="utf-8"?>
<svg version="1.1" id="Layer_1" x="0px" y="0px" width="120px" height="90px" viewBox="0 0 120 90" style="enable-background:new 0 0 120 90;" xmlns="http://www.w3.org/2000/svg">
  <defs/>
  <style type="text/css">
	.st0{fill:#264DE4;}
	.st1{fill:#2965F1;}
	.st2{fill:#EBEBEB;}
	.st3{fill:#FFFFFF;}
</style>
  <path d="M 102.078 40.842 L 62.887 1.651 C 60.633 -0.612 56.969 -0.612 54.712 1.651 L 46.572 9.79 L 56.896 20.113 C 61.896 18.41 66.865 22.76 65.839 27.944 C 65.778 28.255 65.696 28.563 65.59 28.865 L 75.526 38.803 C 80.528 37.084 85.516 41.425 84.503 46.615 C 83.491 51.805 77.239 53.953 73.248 50.481 C 71.025 48.545 70.285 45.407 71.408 42.682 L 62.126 33.4 L 62.126 57.819 C 66.862 60.166 67.282 66.757 62.884 69.684 C 58.485 72.611 52.568 69.678 52.23 64.404 C 52.045 61.468 53.75 58.74 56.471 57.62 L 56.471 32.977 C 52.939 31.529 51.263 27.479 52.737 23.956 L 42.575 13.788 L 15.702 40.671 C 13.437 42.924 13.437 46.593 15.702 48.85 L 54.891 88.027 C 57.148 90.29 60.812 90.29 63.066 88.027 L 102.078 49.007 C 104.344 46.75 104.344 43.081 102.078 40.828" style="fill: rgb(221, 76, 53);"/>
  <path d="M 46.572 10.107 L 56.896 20.43 C 61.896 18.727 66.865 23.077 65.839 28.261 C 65.778 28.572 65.696 28.88 65.59 29.182 L 75.526 39.12 C 80.528 37.401 85.516 41.742 84.503 46.932 C 83.491 52.122 77.239 54.27 73.248 50.798 C 71.025 48.862 70.285 45.724 71.408 42.999 L 62.126 33.717 L 62.126 58.136 C 66.862 60.483 67.282 67.074 62.884 70.001 C 58.485 72.928 52.568 69.995 52.23 64.721 C 52.045 61.785 53.75 59.057 56.471 57.937 L 56.471 33.294 C 52.939 31.846 51.263 27.796 52.737 24.273 L 42.575 14.105" style="fill: rgb(255, 255, 255);"/>
</svg>